<svg id="core" onload="start()" xmlns="http://www.w3.org/2000/svg" xmlns:xlink="http://www.w3.org/1999/xlink" width="500" height="500">
	<path style="stroke:#8bc34a; fill:#000000; stroke-width:12" d="M160 10 L340 10 Q490 10 490 160 L490 340 Q490 490 340 490 L160 490 Q10 490 10 340 L10 160 Q10 10 160 10 Z"/>
	<path style="stroke:#8bc34a; fill:none; stroke-width:18" d="M366 328 L364 322 Q330 250 273 193 L307 227 Q250 170 178 136 L172 134 Q100 100 134 172 L136 178 Q170 250 227 307 L193 273 Q250 330 322 364 L328 366 Q400 400 366 328 Z"/>
	<path style="stroke:#8bc34a; fill:none; stroke-width:18" d="M328 134 L322 136 Q250 170 193 227 L227 193 Q170 250 136 322 L134 328 Q100 400 172 366 L178 364 Q250 330 307 273 L273 307 Q330 250 364 178 L366 172 Q400 100 328 134 Z"/>
	<path style="stroke:#8bc34a; fill:#8bc34a; stroke-width:6" d="M225 90 L215 90 Q210 90 213 86 L247 34 Q250 30 253 34 L287 86 Q290 90 285 90 L275 90 Q270 90 270 95 L270 165 Q270 170 265 170 L235 170 Q230 170 230 165 L230 95 Q230 90 225 90 Z"/>
	<path style="stroke:#8bc34a; fill:#8bc34a; stroke-width:6" d="M90 225 L90 215 Q90 210 86 213 L34 247 Q30 250 34 253 L86 287 Q90 290 90 285 L90 275 Q90 270 95 270 L165 270 Q170 270 170 265 L170 235 Q170 230 165 230 L95 230 Q90 230 90 225 Z"/>
	<path style="stroke:#8bc34a; fill:#000000; stroke-width:18" d="M230 170 L270 170 Q330 170 330 230 L330 270 Q330 330 270 330 L230 330 Q170 330 170 270 L170 230 Q170 170 230 170 Z"/>
	<path style="stroke:#8bc34a; fill:#8bc34a; stroke-width:6" d="M410 225 L410 215 Q410 210 414 213 L466 247 Q470 250 466 253 L414 287 Q410 290 410 285 L410 275 Q410 270 405 270 L335 270 Q330 270 330 265 L330 235 Q330 230 335 230 L405 230 Q410 230 410 225 Z"/>
	<path style="stroke:#8bc34a; fill:#8bc34a; stroke-width:6" d="M225 410 L215 410 Q210 410 213 414 L247 466 Q250 470 253 466 L287 414 Q290 410 285 410 L275 410 Q270 410 270 405 L270 335 Q270 330 265 330 L235 330 Q230 330 230 335 L230 405 Q230 410 225 410 Z"/>
</svg>
