<?xml version="1.0"?>
<svg xmlns="http://www.w3.org/2000/svg" xmlns:xlink="http://www.w3.org/1999/xlink" id="core" onload="start()" version="1.1" width="500" height="500">
	 <path style="stroke:#558b2f; fill:#9ccc65; stroke-width:8" d="M120 30 L180 30 Q190 30 190 40 L190 100 Q190 110 200 110 L260 110 Q270 110 270 120 L270 180 Q270 190 260 190 L200 190 Q190 190 190 200 L190 260 Q190 270 180 270 L120 270 Q110 270 110 260 L110 200 Q110 190 100 190 L40 190 Q30 190 30 180 L30 120 Q30 110 40 110 L100 110 Q110 110 110 100 L110 40 Q110 30 120 30 Z"/>
	 <path style="stroke:#2196f3; fill:none; stroke-width:4" d="M100 20 L100 40 Q100 40 100 40 L120 40 Q120 40 120 40 L120 20 Q120 20 120 20 L100 20 Q100 20 100 20 Z"/>
	 <path style="stroke:#2196f3; fill:none; stroke-width:4" d="M180 20 L180 40 Q180 40 180 40 L200 40 Q200 40 200 40 L200 20 Q200 20 200 20 L180 20 Q180 20 180 20 Z"/>
	 <path style="stroke:#2196f3; fill:none; stroke-width:4" d="M20 100 L20 120 Q20 120 20 120 L40 120 Q40 120 40 120 L40 100 Q40 100 40 100 L20 100 Q20 100 20 100 Z"/>
	 <path style="stroke:#2196f3; fill:none; stroke-width:4" d="M100 100 L100 120 Q100 120 100 120 L120 120 Q120 120 120 120 L120 100 Q120 100 120 100 L100 100 Q100 100 100 100 Z"/>
	 <path style="stroke:#2196f3; fill:none; stroke-width:4" d="M180 100 L180 120 Q180 120 180 120 L200 120 Q200 120 200 120 L200 100 Q200 100 200 100 L180 100 Q180 100 180 100 Z"/>
	 <path style="stroke:#2196f3; fill:none; stroke-width:4" d="M260 100 L260 120 Q260 120 260 120 L280 120 Q280 120 280 120 L280 100 Q280 100 280 100 L260 100 Q260 100 260 100 Z"/>
	 <path style="stroke:#2196f3; fill:none; stroke-width:4" d="M20 180 L20 200 Q20 200 20 200 L40 200 Q40 200 40 200 L40 180 Q40 180 40 180 L20 180 Q20 180 20 180 Z"/>
	 <path style="stroke:#2196f3; fill:none; stroke-width:4" d="M100 180 L100 200 Q100 200 100 200 L120 200 Q120 200 120 200 L120 180 Q120 180 120 180 L100 180 Q100 180 100 180 Z"/>
	 <path style="stroke:#2196f3; fill:none; stroke-width:4" d="M180 180 L180 200 Q180 200 180 200 L200 200 Q200 200 200 200 L200 180 Q200 180 200 180 L180 180 Q180 180 180 180 Z"/>
	 <path style="stroke:#2196f3; fill:none; stroke-width:4" d="M260 180 L260 200 Q260 200 260 200 L280 200 Q280 200 280 200 L280 180 Q280 180 280 180 L260 180 Q260 180 260 180 Z"/>
	 <path style="stroke:#2196f3; fill:none; stroke-width:4" d="M100 260 L100 280 Q100 280 100 280 L120 280 Q120 280 120 280 L120 260 Q120 260 120 260 L100 260 Q100 260 100 260 Z"/>
	 <path style="stroke:#2196f3; fill:none; stroke-width:4" d="M180 260 L180 280 Q180 280 180 280 L200 280 Q200 280 200 280 L200 260 Q200 260 200 260 L180 260 Q180 260 180 260 Z"/>
</svg>
